<svg xmlns="http://www.w3.org/2000/svg" xmlns:xlink="http://www.w3.org/1999/xlink" xmlns:serif="http://www.serif.com/" viewBox="0 0 101 126.25" version="1.1" width="32" xml:space="preserve" style="" x="0px" y="0px" fill-rule="evenodd" clip-rule="evenodd" stroke-linejoin="round" stroke-miterlimit="2"><g transform="matrix(1,0,0,1,-331,-240)"><g transform="matrix(1,0,0,1,331.21,240.965)"><rect x="0" y="0" width="100" height="100" style="" fill="none"/><g serif:id="basket"><g transform="matrix(1,0,0,1,-331.21,-240.965)"><path d="M342.035,293.368C341.206,293.115 340.442,292.66 339.817,292.035C338.814,291.032 338.251,289.672 338.251,288.253L338.251,286.218C338.251,285.666 338.698,285.218 339.251,285.218L345.606,285.218L345.606,267.225C345.606,263.141 347.229,259.225 350.116,256.338C353.003,253.45 356.92,251.828 361.003,251.828L401.543,251.828C405.626,251.828 409.542,253.45 412.43,256.338C415.317,259.225 416.939,263.141 416.939,267.225L416.939,285.218L423.17,285.218C423.723,285.218 424.17,285.666 424.17,286.218L424.17,288.253C424.17,289.672 423.607,291.032 422.604,292.035C422.013,292.626 421.297,293.065 420.519,293.325L413.479,327.014C413.098,328.837 411.576,330.103 409.85,330.103L352.696,330.103C350.969,330.103 349.448,328.837 349.067,327.014L342.035,293.368ZM346.606,287.218L340.251,287.218L340.251,288.253C340.251,289.141 340.603,289.993 341.232,290.621C341.647,291.036 342.16,291.331 342.716,291.484C342.846,291.463 342.981,291.469 343.113,291.502C343.375,291.567 343.648,291.602 343.929,291.602L418.492,291.602C418.809,291.602 419.117,291.558 419.41,291.474C419.548,291.435 419.691,291.427 419.829,291.447C420.337,291.286 420.805,291.005 421.189,290.621C421.817,289.993 422.17,289.141 422.17,288.253L422.17,287.218L415.939,287.218L346.606,287.218ZM414.939,285.218L414.939,267.225C414.939,263.672 413.528,260.264 411.016,257.752C408.503,255.24 405.096,253.828 401.543,253.828L361.003,253.828C357.45,253.828 354.043,255.24 351.53,257.752C349.018,260.264 347.606,263.672 347.606,267.225L347.606,285.218L414.939,285.218ZM344.127,293.602L351.024,326.604C351.204,327.463 351.883,328.103 352.696,328.103L409.85,328.103C410.663,328.103 411.342,327.463 411.522,326.604L418.418,293.602L344.127,293.602ZM357.777,302.695L349.453,302.695C348.901,302.695 348.453,302.247 348.453,301.695C348.453,301.143 348.901,300.695 349.453,300.695L357.165,300.695L355.928,296.653C355.766,296.125 356.064,295.566 356.592,295.404C357.119,295.243 357.679,295.54 357.84,296.068L359.256,300.695L380.273,300.695L380.273,296.066C380.273,295.514 380.721,295.066 381.273,295.066C381.825,295.066 382.273,295.514 382.273,296.066L382.273,300.695L402.795,300.695L404.211,296.068C404.372,295.54 404.932,295.243 405.46,295.404C405.987,295.566 406.285,296.125 406.123,296.653L404.886,300.695L413.093,300.695C413.645,300.695 414.093,301.143 414.093,301.695C414.093,302.247 413.645,302.695 413.093,302.695L404.274,302.695L401.374,312.172L410.394,312.172C410.946,312.172 411.394,312.62 411.394,313.172C411.394,313.724 410.946,314.172 410.394,314.172L400.762,314.172L397.41,325.129C397.248,325.657 396.689,325.954 396.161,325.793C395.633,325.631 395.336,325.072 395.497,324.544L398.671,314.172L382.273,314.172L382.273,324.747C382.273,325.299 381.825,325.747 381.273,325.747C380.721,325.747 380.273,325.299 380.273,324.747L380.273,314.172L363.38,314.172L366.554,324.544C366.716,325.072 366.418,325.631 365.89,325.793C365.363,325.954 364.803,325.657 364.642,325.129L361.289,314.172L351.725,314.172C351.174,314.172 350.725,313.724 350.725,313.172C350.725,312.62 351.174,312.172 351.725,312.172L360.677,312.172L357.777,302.695ZM380.273,302.695L359.868,302.695L362.768,312.172L380.273,312.172L380.273,302.695ZM402.183,302.695L382.273,302.695L382.273,312.172L399.283,312.172L402.183,302.695Z"/></g></g></g></g></svg>
