<svg xmlns="http://www.w3.org/2000/svg" xmlns:xlink="http://www.w3.org/1999/xlink" version="1.1" width="32" x="0px" y="0px" viewBox="0 0 512 640" style="enable-background:new 0 0 512 512;" xml:space="preserve"><path d="M326.7,316.9c23.7-26.1,36.7-59.6,36.7-95.2c0-37.9-14.7-73.5-41.5-100.2c-55.3-55.3-145.2-55.3-200.4,0  c-55.3,55.3-55.3,145.2,0,200.4c26.7,26.9,62.3,41.6,100.2,41.6c35.5,0,69-13,95.2-36.7L422.1,432l9.9-9.9L326.7,316.9z M312,312.1  c-24.1,24.1-56.2,37.4-90.3,37.4s-66.2-13.3-90.3-37.4c-49.8-49.8-49.8-130.8,0-180.6c24.9-24.9,57.6-37.4,90.3-37.4  s65.4,12.5,90.3,37.4c24.1,24.1,37.4,56.2,37.4,90.3C349.4,255.9,336.1,288,312,312.1z"/></svg>
