<svg width="160" height="24" viewBox="0 0 160 24" fill="none" xmlns="http://www.w3.org/2000/svg"><g clip-path="url(#clip0_19_12)"><path d="M5.75897 21.4667V22H0.34359V21.4667L2.80513 20.441L10.1487 1.24103H10.5179L17.4513 21.0974L19.7897 21.4667V22H12.3641V21.4667L14.4154 21.1385L12.241 15.1487H5.55385L3.50256 20.441L5.75897 21.4667ZM9.04103 5.71282L5.75897 14.6154H12.0769L9.04103 5.71282ZM20.1721 1.77436H27.5978V2.30769L25.2593 2.67692V21.3846H32.808L34.8593 15.8462H35.5567V22H20.1721V21.4667L22.4696 21.0974V2.67692L20.1721 2.30769V1.77436ZM37.1096 1.77436H44.5353V2.30769L42.1968 2.67692V21.3846H49.7455L51.7968 15.8462H52.4942V22H37.1096V21.4667L39.4071 21.0974V2.67692L37.1096 2.30769V1.77436ZM53.0625 17.159V16.6256L63.7702 1.77436H64.3856V15.9692H66.683V17.159H64.3856V21.0974L66.683 21.4667V22H59.2574V21.4667L61.5958 21.0974V17.159H53.0625ZM54.2933 15.9692H61.5958V5.87692L54.2933 15.9692ZM81.3295 1.24103H81.8628V6.45128H81.3295L79.5244 2.75897C78.2662 2.15726 76.8987 1.85641 75.4218 1.85641C73.9449 1.85641 72.7825 2.22564 71.9346 2.9641C71.0868 3.70256 70.6628 4.60513 70.6628 5.67179C70.6628 6.73846 70.9637 7.53162 71.5654 8.05128C72.1671 8.57094 73.0423 8.9812 74.191 9.28205L78.7449 10.5128C80.2218 10.8684 81.3158 11.4974 82.0269 12.4C82.738 13.3026 83.0936 14.6838 83.0936 16.5436C83.0936 18.3761 82.5056 19.8393 81.3295 20.9333C80.1808 22 78.7175 22.5333 76.9397 22.5333C75.1893 22.5333 73.562 22.0684 72.0577 21.1385L69.9244 22.2462H69.391V15.7641H69.9244L72.0987 20.441C73.4936 21.4256 75.0115 21.9179 76.6526 21.9179C78.2936 21.9179 79.5927 21.535 80.55 20.7692C81.5346 20.0034 82.0269 18.8957 82.0269 17.4462C82.0269 16.4068 81.7124 15.6 81.0833 15.0256C80.4816 14.4239 79.4697 13.9453 78.0474 13.5897L73.8628 12.5231C72.4132 12.1402 71.3056 11.4838 70.5397 10.5538C69.8013 9.59658 69.4321 8.48889 69.4321 7.23077C69.4321 5.42564 69.9517 3.97607 70.991 2.88205C72.0577 1.78803 73.4389 1.24103 75.1346 1.24103C76.8303 1.24103 78.2799 1.51453 79.4833 2.06154L81.3295 1.24103ZM93.0588 14.1641H90.228V21.0974L92.5665 21.4667V22H85.1409V21.4667L87.4383 21.0974V2.67692L85.1409 2.30769V1.77436H93.0588C97.9819 1.77436 100.443 3.83932 100.443 7.96923C100.443 12.0991 97.9819 14.1641 93.0588 14.1641ZM92.7306 2.43077H90.228V13.5487H92.7306C95.8212 13.5487 97.3665 11.8667 97.3665 8.50256V7.47692C97.3665 4.11282 95.8212 2.43077 92.7306 2.43077ZM141.274 20.2359L141.684 20.6872C140.782 21.7265 139.783 22.2462 138.689 22.2462C137.595 22.2462 136.802 22.0274 136.31 21.5897C135.845 21.1248 135.544 20.3453 135.407 19.2513L134.915 15.8462C134.56 13.412 133.206 12.1949 130.854 12.1949H128.884V21.0974L131.223 21.4667V22H123.797V21.4667L126.095 21.0974V2.67692L123.797 2.30769V1.77436H130.854C133.589 1.77436 135.571 2.21197 136.802 3.08718C138.033 3.93504 138.648 5.23419 138.648 6.98462C138.648 9.88376 136.898 11.5658 133.397 12.0308V12.1949C136.05 12.5504 137.595 13.9863 138.033 16.5026L138.32 18.6769C138.457 19.5248 138.607 20.1538 138.771 20.5641C138.963 20.947 139.277 21.1385 139.715 21.1385C140.18 21.1385 140.7 20.8376 141.274 20.2359ZM130.854 2.43077H128.884V11.5795H131.715C132.946 11.5795 133.903 11.2103 134.587 10.4718C135.271 9.70598 135.613 8.58461 135.613 7.10769V6.61538C135.613 3.82564 134.026 2.43077 130.854 2.43077ZM157.443 7.39487L155.597 2.43077H151.372V21.0974L153.71 21.4667V22H146.284V21.4667L148.582 21.0974V2.43077H144.438L142.469 7.39487H141.772V1.77436H158.223V7.39487H157.443Z" fill="black"/><path d="M102.532 11.8667C102.532 8.72137 103.42 6.17778 105.198 4.2359C107.003 2.26667 109.287 1.26838 112.05 1.24103C114.812 1.24103 117.082 2.23932 118.86 4.2359C120.665 6.20513 121.567 8.74872 121.567 11.8667C121.567 14.9846 120.679 17.5419 118.901 19.5385C117.15 21.535 114.867 22.5333 112.05 22.5333C109.26 22.5333 106.976 21.535 105.198 19.5385C103.42 17.5419 102.532 14.9846 102.532 11.8667ZM118.408 13.8359V9.93846C118.408 7.50427 117.82 5.54872 116.644 4.07179C115.468 2.59487 113.937 1.85641 112.05 1.85641C110.162 1.85641 108.617 2.59487 107.414 4.07179C106.21 5.54872 105.608 7.50427 105.608 9.93846V13.8359C105.608 16.3248 106.21 18.294 107.414 19.7436C108.617 21.1932 110.162 21.9179 112.05 21.9179C113.937 21.9179 115.468 21.1932 116.644 19.7436C117.82 18.294 118.408 16.3248 118.408 13.8359Z" fill="white"/><rect x="108.38" y="10.0641" width="3.55545" height="0.83896" transform="rotate(40.65 108.38 10.0641)" fill="#002153"/><rect x="109.471" y="8.90027" width="3.50272" height="0.858201" transform="rotate(40.65 109.471 8.90027)" fill="#002153"/><rect x="111.601" y="6.67209" width="3.48477" height="0.834434" transform="rotate(40.65 111.601 6.67209)" fill="#CF0921"/><rect x="112.628" y="5.53354" width="3.49054" height="0.837697" transform="rotate(40.65 112.628 5.53354)" fill="#CF0921"/><path d="M121.298 3.17642C121.295 3.17783 118.449 4.26661 114.71 7.32685L115.264 7.80079L114.724 8.43036L114.066 7.86739C113.889 8.01532 113.713 8.17166 113.533 8.3301L114.234 8.93094L113.696 9.56331L112.916 8.89238C112.72 9.07326 112.524 9.25694 112.327 9.44834L113.103 10.1151L112.563 10.7432L111.736 10.0351C111.586 10.1859 111.438 10.3394 111.289 10.4951L112.098 11.1877L111.558 11.8173L110.721 11.1015C110.556 11.2796 110.388 11.4633 110.221 11.6504L111.07 12.3789L110.531 13.0085L109.68 12.2786C107.594 14.7296 105.488 17.7667 103.613 21.5203C104.386 21.8295 105.587 22.0132 107.018 22.0132C110.467 22.0132 115.179 20.9588 118.062 18.0738C122.396 13.7376 122.598 5.27407 121.298 3.17642ZM108.448 10.1298L109.358 10.9087C109.519 10.7236 109.686 10.5392 109.853 10.3555L108.936 9.56822L109.475 8.93725L110.416 9.74349C110.563 9.58996 110.707 9.43431 110.856 9.27938L109.941 8.49626L110.481 7.86528L111.441 8.69116C111.632 8.49977 111.827 8.31328 112.021 8.12679L111.072 7.31143L111.612 6.68185L112.63 7.55541C112.804 7.39767 112.977 7.24062 113.154 7.08427L112.1 6.18058L112.639 5.54819L113.795 6.54374C115.816 4.86113 118.046 3.41759 120.435 2.50829C119.663 2.18999 118.435 2 116.976 2C113.528 2 108.819 3.05443 105.937 5.9394C101.755 10.1256 101.421 18.1551 102.571 20.5991C102.571 20.5991 104.913 16.1444 108.814 11.5383L107.907 10.7594L108.448 10.1298Z" fill="black"/></g><defs><clipPath id="clip0_19_12"><rect width="160" height="24" fill="white"/></clipPath></defs></svg>
