<svg width="222" height="30" viewBox="0 0 222 30" fill="none" xmlns="http://www.w3.org/2000/svg">
<g clip-path="url(#clip0_19_12)">
<path d="M5.94872 27.3333V28H-0.820513V27.3333L2.25641 26.0513L11.4359 2.05128H11.8974L20.5641 26.8718L23.4872 27.3333V28H14.2051V27.3333L16.7692 26.9231L14.0513 19.4359H5.69231L3.12821 26.0513L5.94872 27.3333ZM10.0513 7.64103L5.94872 18.7692H13.8462L10.0513 7.64103ZM23.9651 2.71795H33.2472V3.38461L30.3241 3.84615V27.2308H39.76L42.3241 20.3077H43.1959V28H23.9651V27.3333L26.8369 26.8718V3.84615L23.9651 3.38461V2.71795ZM45.137 2.71795H54.4191V3.38461L51.496 3.84615V27.2308H60.9319L63.496 20.3077H64.3678V28H45.137V27.3333L48.0088 26.8718V3.84615L45.137 3.38461V2.71795ZM65.0781 21.9487V21.2821L78.4627 2.71795H79.232V20.4615H82.1038V21.9487H79.232V26.8718L82.1038 27.3333V28H72.8217V27.3333L75.7448 26.8718V21.9487H65.0781ZM66.6166 20.4615H75.7448V7.84615L66.6166 20.4615ZM100.412 2.05128H101.079V8.5641H100.412L98.1554 3.94872C96.5828 3.19658 94.8734 2.82051 93.0272 2.82051C91.1811 2.82051 89.7281 3.28205 88.6683 4.20513C87.6084 5.1282 87.0785 6.25641 87.0785 7.58974C87.0785 8.92308 87.4546 9.91453 88.2067 10.5641C88.9589 11.2137 90.0529 11.7265 91.4888 12.1026L97.1811 13.641C99.0272 14.0855 100.395 14.8718 101.284 16C102.173 17.1282 102.617 18.8547 102.617 21.1795C102.617 23.4701 101.882 25.2991 100.412 26.6667C98.976 28 97.1469 28.6667 94.9247 28.6667C92.7366 28.6667 90.7025 28.0855 88.8221 26.9231L86.1554 28.3077H85.4888V20.2051H86.1554L88.8734 26.0513C90.617 27.2821 92.5144 27.8974 94.5657 27.8974C96.617 27.8974 98.2409 27.4188 99.4375 26.4615C100.668 25.5043 101.284 24.1197 101.284 22.3077C101.284 21.0085 100.89 20 100.104 19.2821C99.352 18.5299 98.0871 17.9316 96.3093 17.4872L91.0785 16.1538C89.2666 15.6752 87.8819 14.8547 86.9247 13.6923C86.0016 12.4957 85.5401 11.1111 85.5401 9.53846C85.5401 7.28205 86.1896 5.47009 87.4888 4.10256C88.8221 2.73504 90.5486 2.05128 92.6683 2.05128C94.7879 2.05128 96.5999 2.39316 98.1042 3.07692L100.412 2.05128ZM115.074 18.2051H111.535V26.8718L114.458 27.3333V28H105.176V27.3333L108.048 26.8718V3.84615L105.176 3.38461V2.71795H115.074C121.227 2.71795 124.304 5.29915 124.304 10.4615C124.304 15.6239 121.227 18.2051 115.074 18.2051ZM114.663 3.53846H111.535V17.4359H114.663C118.527 17.4359 120.458 15.3333 120.458 11.1282V9.84615C120.458 5.64103 118.527 3.53846 114.663 3.53846ZM175.343 25.7949L175.855 26.359C174.727 27.6581 173.479 28.3077 172.112 28.3077C170.744 28.3077 169.753 28.0342 169.137 27.4872C168.556 26.906 168.18 25.9316 168.009 24.5641L167.394 20.3077C166.949 17.265 165.257 15.7436 162.317 15.7436H159.855V26.8718L162.778 27.3333V28H153.496V27.3333L156.368 26.8718V3.84615L153.496 3.38461V2.71795H162.317C165.736 2.71795 168.214 3.26496 169.753 4.35897C171.291 5.4188 172.06 7.04274 172.06 9.23077C172.06 12.8547 169.872 14.9573 165.496 15.5385V15.7436C168.813 16.188 170.744 17.9829 171.291 21.1282L171.65 23.8462C171.821 24.906 172.009 25.6923 172.214 26.2051C172.454 26.6838 172.847 26.9231 173.394 26.9231C173.975 26.9231 174.625 26.547 175.343 25.7949ZM162.317 3.53846H159.855V14.9744H163.394C164.932 14.9744 166.129 14.5128 166.984 13.5897C167.838 12.6325 168.266 11.2308 168.266 9.38461V8.76923C168.266 5.28205 166.283 3.53846 162.317 3.53846ZM195.554 9.74359L193.247 3.53846H187.965V26.8718L190.888 27.3333V28H181.606V27.3333L184.477 26.8718V3.53846H179.298L176.836 9.74359H175.965V2.71795H196.529V9.74359H195.554Z" fill="black"/>
<path d="M126.914 15.3333C126.914 11.4017 128.026 8.22222 130.248 5.79487C132.504 3.33333 135.359 2.08547 138.812 2.05128C142.265 2.05128 145.102 3.29915 147.325 5.79487C149.581 8.25641 150.709 11.4359 150.709 15.3333C150.709 19.2308 149.598 22.4274 147.376 24.9231C145.188 27.4188 142.333 28.6667 138.812 28.6667C135.325 28.6667 132.47 27.4188 130.248 24.9231C128.026 22.4274 126.914 19.2308 126.914 15.3333ZM146.761 17.7949V12.9231C146.761 9.88034 146.026 7.4359 144.555 5.58974C143.085 3.74359 141.171 2.82051 138.812 2.82051C136.453 2.82051 134.521 3.74359 133.017 5.58974C131.513 7.4359 130.761 9.88034 130.761 12.9231V17.7949C130.761 20.906 131.513 23.3675 133.017 25.1795C134.521 26.9915 136.453 27.8974 138.812 27.8974C141.171 27.8974 143.085 26.9915 144.555 25.1795C146.026 23.3675 146.761 20.906 146.761 17.7949Z" fill="white"/>
<rect x="134.656" y="13.1769" width="4.26654" height="1.00675" transform="rotate(40.65 134.656 13.1769)" fill="#002153"/>
<rect x="135.965" y="11.7803" width="4.20327" height="1.02984" transform="rotate(40.65 135.965 11.7803)" fill="#002153"/>
<rect x="138.522" y="9.10648" width="4.18172" height="1.00132" transform="rotate(40.65 138.522 9.10648)" fill="#CF0921"/>
<rect x="139.753" y="7.74023" width="4.18865" height="1.00524" transform="rotate(40.65 139.753 7.74023)" fill="#CF0921"/>
<path d="M150.157 4.91171C150.154 4.91339 146.738 6.21993 142.253 9.89222L142.916 10.4609L142.269 11.2164L141.479 10.5409C141.267 10.7184 141.055 10.906 140.84 11.0961L141.681 11.8171L141.035 12.576L140.099 11.7709C139.864 11.9879 139.629 12.2083 139.392 12.438L140.323 13.2381L139.676 13.9919L138.683 13.1422C138.504 13.3231 138.326 13.5073 138.147 13.6941L139.118 14.5253L138.469 15.2808L137.466 14.4218C137.267 14.6355 137.066 14.8559 136.866 15.0805L137.885 15.9547L137.237 16.7101L136.216 15.8343C133.713 18.7755 131.186 22.4201 128.936 26.9244C129.863 27.2954 131.305 27.5158 133.022 27.5158C137.161 27.5158 142.815 26.2505 146.274 22.7886C151.475 17.5851 151.718 7.42888 150.157 4.91171ZM134.738 13.2558L135.829 14.1904C136.023 13.9683 136.224 13.7471 136.424 13.5267L135.323 12.5819L135.971 11.8247L137.1 12.7922C137.275 12.608 137.448 12.4212 137.627 12.2353L136.529 11.2955L137.177 10.5383L138.329 11.5294C138.558 11.2997 138.792 11.0759 139.025 10.8521L137.886 9.87371L138.535 9.11822L139.756 10.1665C139.964 9.9772 140.173 9.78874 140.385 9.60113L139.12 8.51669L139.767 7.75783L141.154 8.95249C143.579 6.93336 146.255 5.20111 149.122 4.10994C148.196 3.72799 146.722 3.5 144.972 3.5C140.834 3.5 135.183 4.76532 131.724 8.22728C126.706 13.2507 126.306 22.8861 127.685 25.8189C127.685 25.8189 130.495 20.4733 135.176 14.9459L134.089 14.0112L134.738 13.2558Z" fill="black"/>
</g>
<defs>
<clipPath id="clip0_19_12">
<rect width="222" height="30" fill="white"/>
</clipPath>
</defs>
</svg>
